<?xml version="1.0" encoding="UTF-8" standalone="no"?>
<!-- Created with Inkscape (http://www.inkscape.org/) -->

<svg
   xmlns:dc="http://purl.org/dc/elements/1.1/"
   xmlns:cc="http://creativecommons.org/ns#"
   xmlns:rdf="http://www.w3.org/1999/02/22-rdf-syntax-ns#"
   xmlns:svg="http://www.w3.org/2000/svg"
   xmlns="http://www.w3.org/2000/svg"
   xmlns:sodipodi="http://sodipodi.sourceforge.net/DTD/sodipodi-0.dtd"
   xmlns:inkscape="http://www.inkscape.org/namespaces/inkscape"
   id="svg2"
   version="1.1"
   inkscape:version="0.91 r13725"
   width="2048"
   height="2048"
   viewBox="0 0 2048 2048"
   sodipodi:docname="Gothic Rune 02.svg">
  <metadata
     id="metadata8">
    <rdf:RDF>
      <cc:Work
         rdf:about="">
        <dc:format>image/svg+xml</dc:format>
        <dc:type
           rdf:resource="http://purl.org/dc/dcmitype/StillImage" />
        <dc:title></dc:title>
      </cc:Work>
    </rdf:RDF>
  </metadata>
  <defs
     id="defs6" />
  <sodipodi:namedview
     pagecolor="#ffffff"
     bordercolor="#666666"
     borderopacity="1"
     objecttolerance="10"
     gridtolerance="10"
     guidetolerance="10"
     inkscape:pageopacity="0"
     inkscape:pageshadow="2"
     inkscape:window-width="640"
     inkscape:window-height="480"
     id="namedview4"
     showgrid="false"
     inkscape:zoom="0.27783203"
     inkscape:cx="1024"
     inkscape:cy="1020.7246"
     inkscape:current-layer="svg2" />
  <path
     d="m 526.12719,2038.1056 c -28.6349,-8.047 -54.5456,-17.1135 -57.5792,-20.1466 -3.0338,-3.0221 33.4133,-8.7643 80.9932,-12.7331 179.3747,-14.9579 335.5485,-74.3235 463.53771,-176.2033 34.9191,-27.7967 61.6711,-55.9939 59.4485,-62.6608 -2.2225,-6.6707 -115.46891,-82.0428 -251.65871,-167.501 -309.2014,-194.0195 -335.6957,-213.5725 -441.0211,-325.4947 -95.7285,-101.7196 -146.1072,-179.2837 -187.2435,-288.27483 -23.415,-62.0382 -27.8877,-92.573 -28.387,-193.7974 -0.5047,-102.2949 3.5381,-131.5517 27.187,-196.7613 57.5021,-158.5619 193.2805,-350.9939 323.8038,-458.9144 68.9248,-56.987906 226.1531,-146.065306 237.6042,-134.6139064 2.8019,2.8037 -39.378,44.1273004 -93.7326,91.8339004 -109.6138,96.206806 -201.7543,203.075106 -239.5973,277.901006 -91.8692,181.6432 -64.6647,400.9434 74.8474,603.3594 50.6407,73.47143 216.943,227.00863 320.1264,295.54993 96.2217,63.917 264.00801,147.7585 342.87741,171.335 24.1403,7.2168 58.5494,11.4551 76.4645,9.4197 31.1385,-3.5319 34.4263,-9.234 74.6512,-129.3196 47.5809,-142.0492 138.4483,-492.74453 130.9037,-505.21193 -7.6779,-12.6894 -445.86991,-9.8056 -479.96931,3.1679 -36.9376,14.0439 -58.1466,40.8393 -58.6023,74.0321 -0.284,20.66 -5.4452,24.6689 -28.1352,21.847 -24.7777,-3.095 -31.8295,-15.5295 -65.1003,-114.9152 -42.2221,-126.1263 -79.244,-204.4988 -130.8905,-277.0854 -29.6748,-41.7059 -33.3076,-52.9316 -22.0916,-68.2719 18.2391,-24.9419 23.9985,-23.6056 69.1537,16.0394 80.5302,70.7078 140.1787,88.1562 334.24101,97.7835 96.6031,4.7918 321.9422,8.9645 500.7532,9.2704 l 325.1111,0.5462 -28.7441,45.5327 c -30.8177,48.8172 -154.0449,367.9034 -224.9809,582.56853 -145.6828,440.8578 -419.1015,708.2868 -831.63691,813.4182 -117.2749,29.8867 -209.137,36.0585 -272.3335,18.3005 z"
     id="path4138"
     inkscape:connector-curvature="0" />
</svg>
